<svg xmlns="http://www.w3.org/2000/svg" viewBox="0 0 64 64" id="delivery"><g data-name="Delivery-destination-location-logistics"><path d="M61,30H31a1,1,0,0,0-1,1V61a1,1,0,0,0,1,1H61a1,1,0,0,0,1-1V31A1,1,0,0,0,61,30ZM44,32h4v8.13l-1.45-.96a.975.975,0,0,0-1.1,0L44,40.13ZM32,32H42v3H32ZM60,60H32V37H42v5a1,1,0,0,0,1.55.83L46,41.2l2.45,1.63A1,1,0,0,0,50,42V37H60Zm0-25H50V32H60Z"></path><path d="M39,52H35a1,1,0,0,0-1,1v4a1,1,0,0,0,1,1h4a1,1,0,0,0,1-1V53A1,1,0,0,0,39,52Zm-1,4H36V54h2Z"></path><rect width="8" height="2" x="42" y="56"></rect><rect width="4" height="2" x="42" y="52"></rect><path d="M13,2A11.007,11.007,0,0,0,2,13c0,5.83,9.83,17.18,10.25,17.66a1,1,0,0,0,1.5,0C14.17,30.18,24,18.83,24,13A11.007,11.007,0,0,0,13,2Zm0,26.46C9.93,24.77,4,16.87,4,13a9,9,0,0,1,18,0C22,16.87,16.07,24.77,13,28.46Z"></path><path d="M18 13a5 5 0 1 0-5 5A5.006 5.006 0 0 0 18 13zm-8 0a3 3 0 1 1 3 3A3 3 0 0 1 10 13zM28 45v2H25a3.009 3.009 0 0 0-3 3v2a5 5 0 0 1-10 0V37.82a3 3 0 1 1 2 0V52a3 3 0 0 0 6 0V50a5 5 0 0 1 5-5z"></path></g></svg>