<svg xmlns="http://www.w3.org/2000/svg" width="16" height="16" id="setting"><path fill="#f05542" d="M6.98 1a.978.978 0 0 0-.98.98v1.231a5.5 5.5 0 0 0-1.176.492l-.873-.873a.978.978 0 0 0-1.387 0l-.734.735a.978.978 0 0 0 0 1.386l.87.87A5.5 5.5 0 0 0 2.214 7H.98A.978.978 0 0 0 0 7.98V9.02c0 .543.437.98.98.98h1.231a5.5 5.5 0 0 0 .49 1.178l-.87.871a.978.978 0 0 0 0 1.387l.733.734a.978.978 0 0 0 1.387 0l.87-.869A5.5 5.5 0 0 0 6 13.785v1.235c0 .543.437.98.98.98h1.04c.543 0 .98-.437.98-.98v-1.23a5.5 5.5 0 0 0 1.176-.493l.873.873a.978.978 0 0 0 1.387 0l.734-.734a.978.978 0 0 0 0-1.387l-.87-.87A5.5 5.5 0 0 0 12.786 10h1.235c.543 0 .98-.437.98-.98V7.98a.978.978 0 0 0-.98-.98h-1.23a5.5 5.5 0 0 0-.493-1.176l.873-.873a.978.978 0 0 0 0-1.386l-.734-.735a.978.978 0 0 0-1.387 0l-.87.87A5.5 5.5 0 0 0 9 3.214V1.981A.978.978 0 0 0 8.02 1H6.98zm.52 5A2.5 2.5 0 0 1 10 8.5 2.5 2.5 0 0 1 7.5 11 2.5 2.5 0 0 1 5 8.5 2.5 2.5 0 0 1 7.5 6z"></path></svg>